<?xml version="1.0" encoding="UTF-8"?>
<svg width="752pt" height="752pt" version="1.1" viewBox="0 0 752 752" xmlns="http://www.w3.org/2000/svg">
 <path d="m440.44 303.99c-2.6016 0-5.0781 0.21484-7.4844 0.57422-9.2773-18.848-28.59-31.938-51.152-31.938-17.633 0-33.27 8.0664-43.707 20.555-7.4336-3.293-15.68-5.1602-24.355-5.1602-33.613 0-60.836 27.23-60.836 60.828 0 28.121 19.148 51.559 44.98 58.488v75.754h152.48v-65.383c26.891-4.7188 47.34-28.164 47.34-56.414 0.007813-31.656-25.641-57.305-57.266-57.305zm-122.7 159.23v-29.23h112.77v29.23zm122.7-64.496h-9.9453v29.578h-112.76v-24.195c13.566-0.25 25.754-5.7461 34.75-14.488 7.0664 3.6367 15.098 5.6875 23.578 5.6875 20.867 0 38.738-12.469 46.812-30.336 0.28125-0.44531 0.51562-0.87109 0.6875-1.3672 0.066406-0.15625 0.14844-0.29297 0.22266-0.45312l-0.12891-0.046875c0.14844-0.57422 0.35938-1.1289 0.35938-1.7383 0-3.9297-3.1914-7.1055-7.1055-7.1055-2.6562 0-4.8555 1.4961-6.0742 3.6367l-0.19531-0.074219c-5.5586 13.664-18.953 23.301-34.574 23.273-7.7695 0-14.938-2.3281-20.922-6.4141l-5.3828-3.6484-4.1328 5.0391c-6.9102 8.4805-17.121 13.906-28.773 13.93v0.21484l-7.8789-0.92188c-20.367-2.4062-36.23-19.496-36.195-40.457 0.019532-22.641 18.324-40.945 40.973-40.973 8.1016 0 15.559 2.4141 22.012 6.5312l8.6758 5.5703 5.2617-8.8906c6.5781-11.172 18.418-18.602 32.105-18.602 16.816 0 30.883 11.164 35.605 26.555l2.8828 9.4141 9.4336-2.832c3.7734-1.0977 7.2422-1.7773 10.711-1.7773 20.652 0.066406 37.395 16.789 37.414 37.449-0.019531 20.641-16.762 37.383-37.418 37.441z" fill="#fff"/>
</svg>
